G04 #@! TF.GenerationSoftware,KiCad,Pcbnew,(5.1.5-0-10_14)*
G04 #@! TF.CreationDate,2020-06-19T22:14:24+03:00*
G04 #@! TF.ProjectId,Rev.1,5265762e-312e-46b6-9963-61645f706362,1*
G04 #@! TF.SameCoordinates,PX839b680PY839b680*
G04 #@! TF.FileFunction,Legend,Top*
G04 #@! TF.FilePolarity,Positive*
%FSLAX46Y46*%
G04 Gerber Fmt 4.6, Leading zero omitted, Abs format (unit mm)*
G04 Created by KiCad (PCBNEW (5.1.5-0-10_14)) date 2020-06-19 22:14:24*
%MOMM*%
%LPD*%
G04 APERTURE LIST*
%ADD10C,0.150000*%
G04 APERTURE END LIST*
D10*
X8711904Y48804762D02*
X9283333Y48804762D01*
X9397619Y48766667D01*
X9473809Y48690477D01*
X9511904Y48576191D01*
X9511904Y48500000D01*
X9511904Y49566667D02*
X9511904Y49185715D01*
X8711904Y49185715D01*
X9435714Y50290477D02*
X9473809Y50252381D01*
X9511904Y50138096D01*
X9511904Y50061905D01*
X9473809Y49947620D01*
X9397619Y49871429D01*
X9321428Y49833334D01*
X9169047Y49795239D01*
X9054761Y49795239D01*
X8902380Y49833334D01*
X8826190Y49871429D01*
X8750000Y49947620D01*
X8711904Y50061905D01*
X8711904Y50138096D01*
X8750000Y50252381D01*
X8788095Y50290477D01*
X8711904Y50861905D02*
X9283333Y50861905D01*
X9397619Y50823810D01*
X9473809Y50747620D01*
X9511904Y50633334D01*
X9511904Y50557143D01*
X9511904Y51623810D02*
X9511904Y51242858D01*
X8711904Y51242858D01*
X9435714Y52347620D02*
X9473809Y52309524D01*
X9511904Y52195239D01*
X9511904Y52119048D01*
X9473809Y52004762D01*
X9397619Y51928572D01*
X9321428Y51890477D01*
X9169047Y51852381D01*
X9054761Y51852381D01*
X8902380Y51890477D01*
X8826190Y51928572D01*
X8750000Y52004762D01*
X8711904Y52119048D01*
X8711904Y52195239D01*
X8750000Y52309524D01*
X8788095Y52347620D01*
X8711904Y52919048D02*
X9283333Y52919048D01*
X9397619Y52880953D01*
X9473809Y52804762D01*
X9511904Y52690477D01*
X9511904Y52614286D01*
X9511904Y53680953D02*
X9511904Y53300000D01*
X8711904Y53300000D01*
X9435714Y54404762D02*
X9473809Y54366667D01*
X9511904Y54252381D01*
X9511904Y54176191D01*
X9473809Y54061905D01*
X9397619Y53985715D01*
X9321428Y53947620D01*
X9169047Y53909524D01*
X9054761Y53909524D01*
X8902380Y53947620D01*
X8826190Y53985715D01*
X8750000Y54061905D01*
X8711904Y54176191D01*
X8711904Y54252381D01*
X8750000Y54366667D01*
X8788095Y54404762D01*
X8711904Y54976191D02*
X9283333Y54976191D01*
X9397619Y54938096D01*
X9473809Y54861905D01*
X9511904Y54747620D01*
X9511904Y54671429D01*
X9511904Y55738096D02*
X9511904Y55357143D01*
X8711904Y55357143D01*
X9435714Y56461905D02*
X9473809Y56423810D01*
X9511904Y56309524D01*
X9511904Y56233334D01*
X9473809Y56119048D01*
X9397619Y56042858D01*
X9321428Y56004762D01*
X9169047Y55966667D01*
X9054761Y55966667D01*
X8902380Y56004762D01*
X8826190Y56042858D01*
X8750000Y56119048D01*
X8711904Y56233334D01*
X8711904Y56309524D01*
X8750000Y56423810D01*
X8788095Y56461905D01*
M02*
