G04 #@! TF.GenerationSoftware,KiCad,Pcbnew,(5.1.5-0-10_14)*
G04 #@! TF.CreationDate,2020-06-19T22:14:24+03:00*
G04 #@! TF.ProjectId,Rev.1,5265762e-312e-46b6-9963-61645f706362,1*
G04 #@! TF.SameCoordinates,PX839b680PY839b680*
G04 #@! TF.FileFunction,Other,Fab,Top*
%FSLAX46Y46*%
G04 Gerber Fmt 4.6, Leading zero omitted, Abs format (unit mm)*
G04 Created by KiCad (PCBNEW (5.1.5-0-10_14)) date 2020-06-19 22:14:24*
%MOMM*%
%LPD*%
G04 APERTURE LIST*
%ADD10C,0.100000*%
%ADD11C,0.200000*%
%ADD12C,0.150000*%
%ADD13C,0.062500*%
%ADD14C,0.040000*%
G04 APERTURE END LIST*
D10*
X17950000Y31450000D02*
X17950000Y33150000D01*
X17950000Y33150000D02*
X16650000Y33150000D01*
X16650000Y33150000D02*
X16650000Y31450000D01*
X16650000Y31450000D02*
X17950000Y31450000D01*
D11*
X17700000Y31750000D02*
G75*
G03X17700000Y31750000I-50000J0D01*
G01*
X22400000Y32850000D02*
G75*
G03X22400000Y32850000I-50000J0D01*
G01*
D10*
X23350000Y33150000D02*
X22050000Y33150000D01*
X23350000Y31450000D02*
X23350000Y33150000D01*
X22050000Y31450000D02*
X23350000Y31450000D01*
X22050000Y33150000D02*
X22050000Y31450000D01*
D11*
X17700000Y37550000D02*
G75*
G03X17700000Y37550000I-50000J0D01*
G01*
D10*
X16650000Y37250000D02*
X17950000Y37250000D01*
X16650000Y38950000D02*
X16650000Y37250000D01*
X17950000Y38950000D02*
X16650000Y38950000D01*
X17950000Y37250000D02*
X17950000Y38950000D01*
X22050000Y38950000D02*
X22050000Y37250000D01*
X22050000Y37250000D02*
X23350000Y37250000D01*
X23350000Y37250000D02*
X23350000Y38950000D01*
X23350000Y38950000D02*
X22050000Y38950000D01*
D11*
X22400000Y38650000D02*
G75*
G03X22400000Y38650000I-50000J0D01*
G01*
D12*
X22818161Y6950000D02*
X27418161Y6950000D01*
X24768161Y29050000D02*
X27418161Y29050000D01*
X27418161Y31950000D02*
X34318161Y31950000D01*
X34318161Y29050000D02*
X34318161Y31950000D01*
X27418161Y29050000D02*
X27418161Y31950000D01*
X34318161Y6950000D02*
X34318161Y4050000D01*
X27418161Y6950000D02*
X27418161Y4050000D01*
X34318161Y4050000D02*
X27418161Y4050000D01*
X24768161Y29050000D02*
X23868161Y28150000D01*
X23868161Y28150000D02*
X22818161Y27100000D01*
X38918161Y29050000D02*
X34318161Y29050000D01*
X22818161Y6950000D02*
X22818161Y17000000D01*
X38918161Y6950000D02*
X34318161Y6950000D01*
X22818161Y17000000D02*
X22818161Y27100000D01*
X38918161Y9000000D02*
X38918161Y6950000D01*
X38918161Y19050000D02*
X38918161Y9000000D01*
X38918161Y29050000D02*
X38918161Y19050000D01*
X1050000Y41450000D02*
X5650000Y41450000D01*
X3000000Y63550000D02*
X5650000Y63550000D01*
X5650000Y66450000D02*
X12550000Y66450000D01*
X12550000Y63550000D02*
X12550000Y66450000D01*
X5650000Y63550000D02*
X5650000Y66450000D01*
X12550000Y41450000D02*
X12550000Y38550000D01*
X5650000Y41450000D02*
X5650000Y38550000D01*
X12550000Y38550000D02*
X5650000Y38550000D01*
X3000000Y63550000D02*
X2100000Y62650000D01*
X2100000Y62650000D02*
X1050000Y61600000D01*
X17150000Y63550000D02*
X12550000Y63550000D01*
X1050000Y41450000D02*
X1050000Y51500000D01*
X17150000Y41450000D02*
X12550000Y41450000D01*
X1050000Y51500000D02*
X1050000Y61600000D01*
X17150000Y43500000D02*
X17150000Y41450000D01*
X17150000Y53550000D02*
X17150000Y43500000D01*
X17150000Y63550000D02*
X17150000Y53550000D01*
X38918161Y63550000D02*
X38918161Y53550000D01*
X38918161Y53550000D02*
X38918161Y43500000D01*
X38918161Y43500000D02*
X38918161Y41450000D01*
X22818161Y51500000D02*
X22818161Y61600000D01*
X38918161Y41450000D02*
X34318161Y41450000D01*
X22818161Y41450000D02*
X22818161Y51500000D01*
X38918161Y63550000D02*
X34318161Y63550000D01*
X23868161Y62650000D02*
X22818161Y61600000D01*
X24768161Y63550000D02*
X23868161Y62650000D01*
X34318161Y38550000D02*
X27418161Y38550000D01*
X27418161Y41450000D02*
X27418161Y38550000D01*
X34318161Y41450000D02*
X34318161Y38550000D01*
X27418161Y63550000D02*
X27418161Y66450000D01*
X34318161Y63550000D02*
X34318161Y66450000D01*
X27418161Y66450000D02*
X34318161Y66450000D01*
X24768161Y63550000D02*
X27418161Y63550000D01*
X22818161Y41450000D02*
X27418161Y41450000D01*
D10*
X23200000Y40050000D02*
X23200000Y39550000D01*
X23200000Y39550000D02*
X22200000Y39550000D01*
X22200000Y39550000D02*
X22200000Y40050000D01*
X22200000Y40050000D02*
X23200000Y40050000D01*
X20750000Y37600000D02*
X20750000Y38600000D01*
X21250000Y37600000D02*
X20750000Y37600000D01*
X21250000Y38600000D02*
X21250000Y37600000D01*
X20750000Y38600000D02*
X21250000Y38600000D01*
X17800000Y30350000D02*
X16800000Y30350000D01*
X17800000Y30850000D02*
X17800000Y30350000D01*
X16800000Y30850000D02*
X17800000Y30850000D01*
X16800000Y30350000D02*
X16800000Y30850000D01*
X19250000Y31800000D02*
X18750000Y31800000D01*
X18750000Y31800000D02*
X18750000Y32800000D01*
X18750000Y32800000D02*
X19250000Y32800000D01*
X19250000Y32800000D02*
X19250000Y31800000D01*
X22200000Y34250000D02*
X23200000Y34250000D01*
X22200000Y33750000D02*
X22200000Y34250000D01*
X23200000Y33750000D02*
X22200000Y33750000D01*
X23200000Y34250000D02*
X23200000Y33750000D01*
X20750000Y32800000D02*
X21250000Y32800000D01*
X21250000Y32800000D02*
X21250000Y31800000D01*
X21250000Y31800000D02*
X20750000Y31800000D01*
X20750000Y31800000D02*
X20750000Y32800000D01*
X24470000Y67650000D02*
X15530000Y67650000D01*
X24470000Y67650000D02*
X24470000Y74950000D01*
X24470000Y74950000D02*
X15530000Y74950000D01*
X15530000Y67650000D02*
X15530000Y74950000D01*
X17750000Y64500000D02*
X17250000Y64500000D01*
X17250000Y64500000D02*
X17250000Y65500000D01*
X17250000Y65500000D02*
X17750000Y65500000D01*
X17750000Y65500000D02*
X17750000Y64500000D01*
X18750000Y64700000D02*
X18250000Y64700000D01*
X18750000Y64600000D02*
X18250000Y64600000D01*
X18750000Y65500000D02*
X18750000Y64500000D01*
X18250000Y65500000D02*
X18750000Y65500000D01*
X18250000Y64500000D02*
X18250000Y65500000D01*
X18750000Y64500000D02*
X18250000Y64500000D01*
X19750000Y65500000D02*
X19750000Y64500000D01*
X19250000Y65500000D02*
X19750000Y65500000D01*
X19250000Y64500000D02*
X19250000Y65500000D01*
X19750000Y64500000D02*
X19250000Y64500000D01*
X20750000Y64500000D02*
X20250000Y64500000D01*
X20250000Y64500000D02*
X20250000Y65500000D01*
X20250000Y65500000D02*
X20750000Y65500000D01*
X20750000Y65500000D02*
X20750000Y64500000D01*
X21750000Y64500000D02*
X21250000Y64500000D01*
X21250000Y64500000D02*
X21250000Y65500000D01*
X21250000Y65500000D02*
X21750000Y65500000D01*
X21750000Y65500000D02*
X21750000Y64500000D01*
X22250000Y65500000D02*
X22750000Y65500000D01*
X22750000Y65500000D02*
X22750000Y64500000D01*
X22750000Y64500000D02*
X22250000Y64500000D01*
X22250000Y64500000D02*
X22250000Y65500000D01*
X22250000Y65400000D02*
X22750000Y65400000D01*
X22250000Y65300000D02*
X22750000Y65300000D01*
X16800000Y36150000D02*
X16800000Y36650000D01*
X16800000Y36650000D02*
X17800000Y36650000D01*
X17800000Y36650000D02*
X17800000Y36150000D01*
X17800000Y36150000D02*
X16800000Y36150000D01*
X19250000Y38600000D02*
X19250000Y37600000D01*
X18750000Y38600000D02*
X19250000Y38600000D01*
X18750000Y37600000D02*
X18750000Y38600000D01*
X19250000Y37600000D02*
X18750000Y37600000D01*
X22200000Y30850000D02*
X23200000Y30850000D01*
X22200000Y30350000D02*
X22200000Y30850000D01*
X23200000Y30350000D02*
X22200000Y30350000D01*
X23200000Y30850000D02*
X23200000Y30350000D01*
X22200000Y36650000D02*
X23200000Y36650000D01*
X22200000Y36150000D02*
X22200000Y36650000D01*
X23200000Y36150000D02*
X22200000Y36150000D01*
X23200000Y36650000D02*
X23200000Y36150000D01*
X17815000Y33750000D02*
X16815000Y33750000D01*
X17815000Y34250000D02*
X17815000Y33750000D01*
X16815000Y34250000D02*
X17815000Y34250000D01*
X16815000Y33750000D02*
X16815000Y34250000D01*
X16800000Y39550000D02*
X16800000Y40050000D01*
X16800000Y40050000D02*
X17800000Y40050000D01*
X17800000Y40050000D02*
X17800000Y39550000D01*
X17800000Y39550000D02*
X16800000Y39550000D01*
X24650000Y37600000D02*
X24150000Y37600000D01*
X24150000Y37600000D02*
X24150000Y38600000D01*
X24150000Y38600000D02*
X24650000Y38600000D01*
X24650000Y38600000D02*
X24650000Y37600000D01*
X24650000Y31800000D02*
X24150000Y31800000D01*
X24150000Y31800000D02*
X24150000Y32800000D01*
X24150000Y32800000D02*
X24650000Y32800000D01*
X24650000Y32800000D02*
X24650000Y31800000D01*
X15350000Y32800000D02*
X15850000Y32800000D01*
X15850000Y32800000D02*
X15850000Y31800000D01*
X15850000Y31800000D02*
X15350000Y31800000D01*
X15350000Y31800000D02*
X15350000Y32800000D01*
X15350000Y37600000D02*
X15350000Y38600000D01*
X15850000Y37600000D02*
X15350000Y37600000D01*
X15850000Y38600000D02*
X15850000Y37600000D01*
X15350000Y38600000D02*
X15850000Y38600000D01*
X25650000Y31800000D02*
X25150000Y31800000D01*
X25150000Y31800000D02*
X25150000Y32800000D01*
X25150000Y32800000D02*
X25650000Y32800000D01*
X25650000Y32800000D02*
X25650000Y31800000D01*
X25650000Y31900000D02*
X25150000Y31900000D01*
X25650000Y32000000D02*
X25150000Y32000000D01*
X14350000Y32800000D02*
X14850000Y32800000D01*
X14850000Y32800000D02*
X14850000Y31800000D01*
X14850000Y31800000D02*
X14350000Y31800000D01*
X14350000Y31800000D02*
X14350000Y32800000D01*
X14350000Y32700000D02*
X14850000Y32700000D01*
X14350000Y32600000D02*
X14850000Y32600000D01*
X25650000Y37800000D02*
X25150000Y37800000D01*
X25650000Y37700000D02*
X25150000Y37700000D01*
X25650000Y38600000D02*
X25650000Y37600000D01*
X25150000Y38600000D02*
X25650000Y38600000D01*
X25150000Y37600000D02*
X25150000Y38600000D01*
X25650000Y37600000D02*
X25150000Y37600000D01*
X14350000Y38400000D02*
X14850000Y38400000D01*
X14350000Y38500000D02*
X14850000Y38500000D01*
X14350000Y37600000D02*
X14350000Y38600000D01*
X14850000Y37600000D02*
X14350000Y37600000D01*
X14850000Y38600000D02*
X14850000Y37600000D01*
X14350000Y38600000D02*
X14850000Y38600000D01*
D12*
X17150000Y29050000D02*
X17150000Y19050000D01*
X17150000Y19050000D02*
X17150000Y9000000D01*
X17150000Y9000000D02*
X17150000Y6950000D01*
X1050000Y17000000D02*
X1050000Y27100000D01*
X17150000Y6950000D02*
X12550000Y6950000D01*
X1050000Y6950000D02*
X1050000Y17000000D01*
X17150000Y29050000D02*
X12550000Y29050000D01*
X2100000Y28150000D02*
X1050000Y27100000D01*
X3000000Y29050000D02*
X2100000Y28150000D01*
X12550000Y4050000D02*
X5650000Y4050000D01*
X5650000Y6950000D02*
X5650000Y4050000D01*
X12550000Y6950000D02*
X12550000Y4050000D01*
X5650000Y29050000D02*
X5650000Y31950000D01*
X12550000Y29050000D02*
X12550000Y31950000D01*
X5650000Y31950000D02*
X12550000Y31950000D01*
X3000000Y29050000D02*
X5650000Y29050000D01*
X1050000Y6950000D02*
X5650000Y6950000D01*
D13*
X16945238Y32519048D02*
X16945238Y32195239D01*
X16964285Y32157143D01*
X16983333Y32138096D01*
X17021428Y32119048D01*
X17097619Y32119048D01*
X17135714Y32138096D01*
X17154761Y32157143D01*
X17173809Y32195239D01*
X17173809Y32519048D01*
X17535714Y32385715D02*
X17535714Y32119048D01*
X17440476Y32538096D02*
X17345238Y32252381D01*
X17592857Y32252381D01*
X22445238Y32519048D02*
X22445238Y32195239D01*
X22464285Y32157143D01*
X22483333Y32138096D01*
X22521428Y32119048D01*
X22597619Y32119048D01*
X22635714Y32138096D01*
X22654761Y32157143D01*
X22673809Y32195239D01*
X22673809Y32519048D01*
X22826190Y32519048D02*
X23073809Y32519048D01*
X22940476Y32366667D01*
X22997619Y32366667D01*
X23035714Y32347620D01*
X23054761Y32328572D01*
X23073809Y32290477D01*
X23073809Y32195239D01*
X23054761Y32157143D01*
X23035714Y32138096D01*
X22997619Y32119048D01*
X22883333Y32119048D01*
X22845238Y32138096D01*
X22826190Y32157143D01*
X16945238Y38319048D02*
X16945238Y37995239D01*
X16964285Y37957143D01*
X16983333Y37938096D01*
X17021428Y37919048D01*
X17097619Y37919048D01*
X17135714Y37938096D01*
X17154761Y37957143D01*
X17173809Y37995239D01*
X17173809Y38319048D01*
X17345238Y38280953D02*
X17364285Y38300000D01*
X17402380Y38319048D01*
X17497619Y38319048D01*
X17535714Y38300000D01*
X17554761Y38280953D01*
X17573809Y38242858D01*
X17573809Y38204762D01*
X17554761Y38147620D01*
X17326190Y37919048D01*
X17573809Y37919048D01*
X22445238Y38319048D02*
X22445238Y37995239D01*
X22464285Y37957143D01*
X22483333Y37938096D01*
X22521428Y37919048D01*
X22597619Y37919048D01*
X22635714Y37938096D01*
X22654761Y37957143D01*
X22673809Y37995239D01*
X22673809Y38319048D01*
X23073809Y37919048D02*
X22845238Y37919048D01*
X22959523Y37919048D02*
X22959523Y38319048D01*
X22921428Y38261905D01*
X22883333Y38223810D01*
X22845238Y38204762D01*
D14*
X22539285Y39710715D02*
X22527380Y39698810D01*
X22491666Y39686905D01*
X22467857Y39686905D01*
X22432142Y39698810D01*
X22408333Y39722620D01*
X22396428Y39746429D01*
X22384523Y39794048D01*
X22384523Y39829762D01*
X22396428Y39877381D01*
X22408333Y39901191D01*
X22432142Y39925000D01*
X22467857Y39936905D01*
X22491666Y39936905D01*
X22527380Y39925000D01*
X22539285Y39913096D01*
X22777380Y39686905D02*
X22634523Y39686905D01*
X22705952Y39686905D02*
X22705952Y39936905D01*
X22682142Y39901191D01*
X22658333Y39877381D01*
X22634523Y39865477D01*
X23015476Y39686905D02*
X22872619Y39686905D01*
X22944047Y39686905D02*
X22944047Y39936905D01*
X22920238Y39901191D01*
X22896428Y39877381D01*
X22872619Y39865477D01*
X21089285Y37939286D02*
X21101190Y37927381D01*
X21113095Y37891667D01*
X21113095Y37867858D01*
X21101190Y37832143D01*
X21077380Y37808334D01*
X21053571Y37796429D01*
X21005952Y37784524D01*
X20970238Y37784524D01*
X20922619Y37796429D01*
X20898809Y37808334D01*
X20875000Y37832143D01*
X20863095Y37867858D01*
X20863095Y37891667D01*
X20875000Y37927381D01*
X20886904Y37939286D01*
X21113095Y38177381D02*
X21113095Y38034524D01*
X21113095Y38105953D02*
X20863095Y38105953D01*
X20898809Y38082143D01*
X20922619Y38058334D01*
X20934523Y38034524D01*
X20886904Y38272620D02*
X20875000Y38284524D01*
X20863095Y38308334D01*
X20863095Y38367858D01*
X20875000Y38391667D01*
X20886904Y38403572D01*
X20910714Y38415477D01*
X20934523Y38415477D01*
X20970238Y38403572D01*
X21113095Y38260715D01*
X21113095Y38415477D01*
X17139285Y30510715D02*
X17127380Y30498810D01*
X17091666Y30486905D01*
X17067857Y30486905D01*
X17032142Y30498810D01*
X17008333Y30522620D01*
X16996428Y30546429D01*
X16984523Y30594048D01*
X16984523Y30629762D01*
X16996428Y30677381D01*
X17008333Y30701191D01*
X17032142Y30725000D01*
X17067857Y30736905D01*
X17091666Y30736905D01*
X17127380Y30725000D01*
X17139285Y30713096D01*
X17353571Y30653572D02*
X17353571Y30486905D01*
X17294047Y30748810D02*
X17234523Y30570239D01*
X17389285Y30570239D01*
X17615476Y30486905D02*
X17472619Y30486905D01*
X17544047Y30486905D02*
X17544047Y30736905D01*
X17520238Y30701191D01*
X17496428Y30677381D01*
X17472619Y30665477D01*
X19089285Y32139286D02*
X19101190Y32127381D01*
X19113095Y32091667D01*
X19113095Y32067858D01*
X19101190Y32032143D01*
X19077380Y32008334D01*
X19053571Y31996429D01*
X19005952Y31984524D01*
X18970238Y31984524D01*
X18922619Y31996429D01*
X18898809Y32008334D01*
X18875000Y32032143D01*
X18863095Y32067858D01*
X18863095Y32091667D01*
X18875000Y32127381D01*
X18886904Y32139286D01*
X18946428Y32353572D02*
X19113095Y32353572D01*
X18851190Y32294048D02*
X19029761Y32234524D01*
X19029761Y32389286D01*
X18886904Y32472620D02*
X18875000Y32484524D01*
X18863095Y32508334D01*
X18863095Y32567858D01*
X18875000Y32591667D01*
X18886904Y32603572D01*
X18910714Y32615477D01*
X18934523Y32615477D01*
X18970238Y32603572D01*
X19113095Y32460715D01*
X19113095Y32615477D01*
X22539285Y33910715D02*
X22527380Y33898810D01*
X22491666Y33886905D01*
X22467857Y33886905D01*
X22432142Y33898810D01*
X22408333Y33922620D01*
X22396428Y33946429D01*
X22384523Y33994048D01*
X22384523Y34029762D01*
X22396428Y34077381D01*
X22408333Y34101191D01*
X22432142Y34125000D01*
X22467857Y34136905D01*
X22491666Y34136905D01*
X22527380Y34125000D01*
X22539285Y34113096D01*
X22622619Y34136905D02*
X22777380Y34136905D01*
X22694047Y34041667D01*
X22729761Y34041667D01*
X22753571Y34029762D01*
X22765476Y34017858D01*
X22777380Y33994048D01*
X22777380Y33934524D01*
X22765476Y33910715D01*
X22753571Y33898810D01*
X22729761Y33886905D01*
X22658333Y33886905D01*
X22634523Y33898810D01*
X22622619Y33910715D01*
X23015476Y33886905D02*
X22872619Y33886905D01*
X22944047Y33886905D02*
X22944047Y34136905D01*
X22920238Y34101191D01*
X22896428Y34077381D01*
X22872619Y34065477D01*
X21089285Y32139286D02*
X21101190Y32127381D01*
X21113095Y32091667D01*
X21113095Y32067858D01*
X21101190Y32032143D01*
X21077380Y32008334D01*
X21053571Y31996429D01*
X21005952Y31984524D01*
X20970238Y31984524D01*
X20922619Y31996429D01*
X20898809Y32008334D01*
X20875000Y32032143D01*
X20863095Y32067858D01*
X20863095Y32091667D01*
X20875000Y32127381D01*
X20886904Y32139286D01*
X20863095Y32222620D02*
X20863095Y32377381D01*
X20958333Y32294048D01*
X20958333Y32329762D01*
X20970238Y32353572D01*
X20982142Y32365477D01*
X21005952Y32377381D01*
X21065476Y32377381D01*
X21089285Y32365477D01*
X21101190Y32353572D01*
X21113095Y32329762D01*
X21113095Y32258334D01*
X21101190Y32234524D01*
X21089285Y32222620D01*
X20886904Y32472620D02*
X20875000Y32484524D01*
X20863095Y32508334D01*
X20863095Y32567858D01*
X20875000Y32591667D01*
X20886904Y32603572D01*
X20910714Y32615477D01*
X20934523Y32615477D01*
X20970238Y32603572D01*
X21113095Y32460715D01*
X21113095Y32615477D01*
D12*
X19800000Y71628572D02*
X19800000Y71200000D01*
X19771428Y71114286D01*
X19714285Y71057143D01*
X19628571Y71028572D01*
X19571428Y71028572D01*
X20400000Y71028572D02*
X20057142Y71028572D01*
X20228571Y71028572D02*
X20228571Y71628572D01*
X20171428Y71542858D01*
X20114285Y71485715D01*
X20057142Y71457143D01*
D14*
X17482142Y64916667D02*
X17482142Y64833334D01*
X17613095Y64833334D02*
X17363095Y64833334D01*
X17363095Y64952381D01*
X17613095Y65178572D02*
X17613095Y65035715D01*
X17613095Y65107143D02*
X17363095Y65107143D01*
X17398809Y65083334D01*
X17422619Y65059524D01*
X17434523Y65035715D01*
X18613095Y64815477D02*
X18363095Y64815477D01*
X18363095Y64875000D01*
X18375000Y64910715D01*
X18398809Y64934524D01*
X18422619Y64946429D01*
X18470238Y64958334D01*
X18505952Y64958334D01*
X18553571Y64946429D01*
X18577380Y64934524D01*
X18601190Y64910715D01*
X18613095Y64875000D01*
X18613095Y64815477D01*
X18613095Y65196429D02*
X18613095Y65053572D01*
X18613095Y65125000D02*
X18363095Y65125000D01*
X18398809Y65101191D01*
X18422619Y65077381D01*
X18434523Y65053572D01*
X19613095Y64958334D02*
X19494047Y64875000D01*
X19613095Y64815477D02*
X19363095Y64815477D01*
X19363095Y64910715D01*
X19375000Y64934524D01*
X19386904Y64946429D01*
X19410714Y64958334D01*
X19446428Y64958334D01*
X19470238Y64946429D01*
X19482142Y64934524D01*
X19494047Y64910715D01*
X19494047Y64815477D01*
X19386904Y65053572D02*
X19375000Y65065477D01*
X19363095Y65089286D01*
X19363095Y65148810D01*
X19375000Y65172620D01*
X19386904Y65184524D01*
X19410714Y65196429D01*
X19434523Y65196429D01*
X19470238Y65184524D01*
X19613095Y65041667D01*
X19613095Y65196429D01*
X20613095Y64958334D02*
X20494047Y64875000D01*
X20613095Y64815477D02*
X20363095Y64815477D01*
X20363095Y64910715D01*
X20375000Y64934524D01*
X20386904Y64946429D01*
X20410714Y64958334D01*
X20446428Y64958334D01*
X20470238Y64946429D01*
X20482142Y64934524D01*
X20494047Y64910715D01*
X20494047Y64815477D01*
X20613095Y65196429D02*
X20613095Y65053572D01*
X20613095Y65125000D02*
X20363095Y65125000D01*
X20398809Y65101191D01*
X20422619Y65077381D01*
X20434523Y65053572D01*
X21613095Y64958334D02*
X21494047Y64875000D01*
X21613095Y64815477D02*
X21363095Y64815477D01*
X21363095Y64910715D01*
X21375000Y64934524D01*
X21386904Y64946429D01*
X21410714Y64958334D01*
X21446428Y64958334D01*
X21470238Y64946429D01*
X21482142Y64934524D01*
X21494047Y64910715D01*
X21494047Y64815477D01*
X21363095Y65041667D02*
X21363095Y65196429D01*
X21458333Y65113096D01*
X21458333Y65148810D01*
X21470238Y65172620D01*
X21482142Y65184524D01*
X21505952Y65196429D01*
X21565476Y65196429D01*
X21589285Y65184524D01*
X21601190Y65172620D01*
X21613095Y65148810D01*
X21613095Y65077381D01*
X21601190Y65053572D01*
X21589285Y65041667D01*
X22613095Y64815477D02*
X22363095Y64815477D01*
X22363095Y64875000D01*
X22375000Y64910715D01*
X22398809Y64934524D01*
X22422619Y64946429D01*
X22470238Y64958334D01*
X22505952Y64958334D01*
X22553571Y64946429D01*
X22577380Y64934524D01*
X22601190Y64910715D01*
X22613095Y64875000D01*
X22613095Y64815477D01*
X22386904Y65053572D02*
X22375000Y65065477D01*
X22363095Y65089286D01*
X22363095Y65148810D01*
X22375000Y65172620D01*
X22386904Y65184524D01*
X22410714Y65196429D01*
X22434523Y65196429D01*
X22470238Y65184524D01*
X22613095Y65041667D01*
X22613095Y65196429D01*
X17139285Y36310715D02*
X17127380Y36298810D01*
X17091666Y36286905D01*
X17067857Y36286905D01*
X17032142Y36298810D01*
X17008333Y36322620D01*
X16996428Y36346429D01*
X16984523Y36394048D01*
X16984523Y36429762D01*
X16996428Y36477381D01*
X17008333Y36501191D01*
X17032142Y36525000D01*
X17067857Y36536905D01*
X17091666Y36536905D01*
X17127380Y36525000D01*
X17139285Y36513096D01*
X17234523Y36513096D02*
X17246428Y36525000D01*
X17270238Y36536905D01*
X17329761Y36536905D01*
X17353571Y36525000D01*
X17365476Y36513096D01*
X17377380Y36489286D01*
X17377380Y36465477D01*
X17365476Y36429762D01*
X17222619Y36286905D01*
X17377380Y36286905D01*
X17615476Y36286905D02*
X17472619Y36286905D01*
X17544047Y36286905D02*
X17544047Y36536905D01*
X17520238Y36501191D01*
X17496428Y36477381D01*
X17472619Y36465477D01*
X19089285Y37939286D02*
X19101190Y37927381D01*
X19113095Y37891667D01*
X19113095Y37867858D01*
X19101190Y37832143D01*
X19077380Y37808334D01*
X19053571Y37796429D01*
X19005952Y37784524D01*
X18970238Y37784524D01*
X18922619Y37796429D01*
X18898809Y37808334D01*
X18875000Y37832143D01*
X18863095Y37867858D01*
X18863095Y37891667D01*
X18875000Y37927381D01*
X18886904Y37939286D01*
X18886904Y38034524D02*
X18875000Y38046429D01*
X18863095Y38070239D01*
X18863095Y38129762D01*
X18875000Y38153572D01*
X18886904Y38165477D01*
X18910714Y38177381D01*
X18934523Y38177381D01*
X18970238Y38165477D01*
X19113095Y38022620D01*
X19113095Y38177381D01*
X18886904Y38272620D02*
X18875000Y38284524D01*
X18863095Y38308334D01*
X18863095Y38367858D01*
X18875000Y38391667D01*
X18886904Y38403572D01*
X18910714Y38415477D01*
X18934523Y38415477D01*
X18970238Y38403572D01*
X19113095Y38260715D01*
X19113095Y38415477D01*
X22539285Y30486905D02*
X22455952Y30605953D01*
X22396428Y30486905D02*
X22396428Y30736905D01*
X22491666Y30736905D01*
X22515476Y30725000D01*
X22527380Y30713096D01*
X22539285Y30689286D01*
X22539285Y30653572D01*
X22527380Y30629762D01*
X22515476Y30617858D01*
X22491666Y30605953D01*
X22396428Y30605953D01*
X22622619Y30736905D02*
X22777380Y30736905D01*
X22694047Y30641667D01*
X22729761Y30641667D01*
X22753571Y30629762D01*
X22765476Y30617858D01*
X22777380Y30594048D01*
X22777380Y30534524D01*
X22765476Y30510715D01*
X22753571Y30498810D01*
X22729761Y30486905D01*
X22658333Y30486905D01*
X22634523Y30498810D01*
X22622619Y30510715D01*
X22872619Y30713096D02*
X22884523Y30725000D01*
X22908333Y30736905D01*
X22967857Y30736905D01*
X22991666Y30725000D01*
X23003571Y30713096D01*
X23015476Y30689286D01*
X23015476Y30665477D01*
X23003571Y30629762D01*
X22860714Y30486905D01*
X23015476Y30486905D01*
X22539285Y36286905D02*
X22455952Y36405953D01*
X22396428Y36286905D02*
X22396428Y36536905D01*
X22491666Y36536905D01*
X22515476Y36525000D01*
X22527380Y36513096D01*
X22539285Y36489286D01*
X22539285Y36453572D01*
X22527380Y36429762D01*
X22515476Y36417858D01*
X22491666Y36405953D01*
X22396428Y36405953D01*
X22777380Y36286905D02*
X22634523Y36286905D01*
X22705952Y36286905D02*
X22705952Y36536905D01*
X22682142Y36501191D01*
X22658333Y36477381D01*
X22634523Y36465477D01*
X22872619Y36513096D02*
X22884523Y36525000D01*
X22908333Y36536905D01*
X22967857Y36536905D01*
X22991666Y36525000D01*
X23003571Y36513096D01*
X23015476Y36489286D01*
X23015476Y36465477D01*
X23003571Y36429762D01*
X22860714Y36286905D01*
X23015476Y36286905D01*
X17154285Y33886905D02*
X17070952Y34005953D01*
X17011428Y33886905D02*
X17011428Y34136905D01*
X17106666Y34136905D01*
X17130476Y34125000D01*
X17142380Y34113096D01*
X17154285Y34089286D01*
X17154285Y34053572D01*
X17142380Y34029762D01*
X17130476Y34017858D01*
X17106666Y34005953D01*
X17011428Y34005953D01*
X17368571Y34053572D02*
X17368571Y33886905D01*
X17309047Y34148810D02*
X17249523Y33970239D01*
X17404285Y33970239D01*
X17487619Y34113096D02*
X17499523Y34125000D01*
X17523333Y34136905D01*
X17582857Y34136905D01*
X17606666Y34125000D01*
X17618571Y34113096D01*
X17630476Y34089286D01*
X17630476Y34065477D01*
X17618571Y34029762D01*
X17475714Y33886905D01*
X17630476Y33886905D01*
X17139285Y39686905D02*
X17055952Y39805953D01*
X16996428Y39686905D02*
X16996428Y39936905D01*
X17091666Y39936905D01*
X17115476Y39925000D01*
X17127380Y39913096D01*
X17139285Y39889286D01*
X17139285Y39853572D01*
X17127380Y39829762D01*
X17115476Y39817858D01*
X17091666Y39805953D01*
X16996428Y39805953D01*
X17234523Y39913096D02*
X17246428Y39925000D01*
X17270238Y39936905D01*
X17329761Y39936905D01*
X17353571Y39925000D01*
X17365476Y39913096D01*
X17377380Y39889286D01*
X17377380Y39865477D01*
X17365476Y39829762D01*
X17222619Y39686905D01*
X17377380Y39686905D01*
X17472619Y39913096D02*
X17484523Y39925000D01*
X17508333Y39936905D01*
X17567857Y39936905D01*
X17591666Y39925000D01*
X17603571Y39913096D01*
X17615476Y39889286D01*
X17615476Y39865477D01*
X17603571Y39829762D01*
X17460714Y39686905D01*
X17615476Y39686905D01*
X24513095Y37939286D02*
X24394047Y37855953D01*
X24513095Y37796429D02*
X24263095Y37796429D01*
X24263095Y37891667D01*
X24275000Y37915477D01*
X24286904Y37927381D01*
X24310714Y37939286D01*
X24346428Y37939286D01*
X24370238Y37927381D01*
X24382142Y37915477D01*
X24394047Y37891667D01*
X24394047Y37796429D01*
X24513095Y38177381D02*
X24513095Y38034524D01*
X24513095Y38105953D02*
X24263095Y38105953D01*
X24298809Y38082143D01*
X24322619Y38058334D01*
X24334523Y38034524D01*
X24513095Y38415477D02*
X24513095Y38272620D01*
X24513095Y38344048D02*
X24263095Y38344048D01*
X24298809Y38320239D01*
X24322619Y38296429D01*
X24334523Y38272620D01*
X24513095Y32139286D02*
X24394047Y32055953D01*
X24513095Y31996429D02*
X24263095Y31996429D01*
X24263095Y32091667D01*
X24275000Y32115477D01*
X24286904Y32127381D01*
X24310714Y32139286D01*
X24346428Y32139286D01*
X24370238Y32127381D01*
X24382142Y32115477D01*
X24394047Y32091667D01*
X24394047Y31996429D01*
X24263095Y32222620D02*
X24263095Y32377381D01*
X24358333Y32294048D01*
X24358333Y32329762D01*
X24370238Y32353572D01*
X24382142Y32365477D01*
X24405952Y32377381D01*
X24465476Y32377381D01*
X24489285Y32365477D01*
X24501190Y32353572D01*
X24513095Y32329762D01*
X24513095Y32258334D01*
X24501190Y32234524D01*
X24489285Y32222620D01*
X24513095Y32615477D02*
X24513095Y32472620D01*
X24513095Y32544048D02*
X24263095Y32544048D01*
X24298809Y32520239D01*
X24322619Y32496429D01*
X24334523Y32472620D01*
X15713095Y32139286D02*
X15594047Y32055953D01*
X15713095Y31996429D02*
X15463095Y31996429D01*
X15463095Y32091667D01*
X15475000Y32115477D01*
X15486904Y32127381D01*
X15510714Y32139286D01*
X15546428Y32139286D01*
X15570238Y32127381D01*
X15582142Y32115477D01*
X15594047Y32091667D01*
X15594047Y31996429D01*
X15546428Y32353572D02*
X15713095Y32353572D01*
X15451190Y32294048D02*
X15629761Y32234524D01*
X15629761Y32389286D01*
X15713095Y32615477D02*
X15713095Y32472620D01*
X15713095Y32544048D02*
X15463095Y32544048D01*
X15498809Y32520239D01*
X15522619Y32496429D01*
X15534523Y32472620D01*
X15713095Y37939286D02*
X15594047Y37855953D01*
X15713095Y37796429D02*
X15463095Y37796429D01*
X15463095Y37891667D01*
X15475000Y37915477D01*
X15486904Y37927381D01*
X15510714Y37939286D01*
X15546428Y37939286D01*
X15570238Y37927381D01*
X15582142Y37915477D01*
X15594047Y37891667D01*
X15594047Y37796429D01*
X15486904Y38034524D02*
X15475000Y38046429D01*
X15463095Y38070239D01*
X15463095Y38129762D01*
X15475000Y38153572D01*
X15486904Y38165477D01*
X15510714Y38177381D01*
X15534523Y38177381D01*
X15570238Y38165477D01*
X15713095Y38022620D01*
X15713095Y38177381D01*
X15713095Y38415477D02*
X15713095Y38272620D01*
X15713095Y38344048D02*
X15463095Y38344048D01*
X15498809Y38320239D01*
X15522619Y38296429D01*
X15534523Y38272620D01*
X25513095Y31996429D02*
X25263095Y31996429D01*
X25263095Y32055953D01*
X25275000Y32091667D01*
X25298809Y32115477D01*
X25322619Y32127381D01*
X25370238Y32139286D01*
X25405952Y32139286D01*
X25453571Y32127381D01*
X25477380Y32115477D01*
X25501190Y32091667D01*
X25513095Y32055953D01*
X25513095Y31996429D01*
X25263095Y32222620D02*
X25263095Y32377381D01*
X25358333Y32294048D01*
X25358333Y32329762D01*
X25370238Y32353572D01*
X25382142Y32365477D01*
X25405952Y32377381D01*
X25465476Y32377381D01*
X25489285Y32365477D01*
X25501190Y32353572D01*
X25513095Y32329762D01*
X25513095Y32258334D01*
X25501190Y32234524D01*
X25489285Y32222620D01*
X25513095Y32615477D02*
X25513095Y32472620D01*
X25513095Y32544048D02*
X25263095Y32544048D01*
X25298809Y32520239D01*
X25322619Y32496429D01*
X25334523Y32472620D01*
X14713095Y31996429D02*
X14463095Y31996429D01*
X14463095Y32055953D01*
X14475000Y32091667D01*
X14498809Y32115477D01*
X14522619Y32127381D01*
X14570238Y32139286D01*
X14605952Y32139286D01*
X14653571Y32127381D01*
X14677380Y32115477D01*
X14701190Y32091667D01*
X14713095Y32055953D01*
X14713095Y31996429D01*
X14546428Y32353572D02*
X14713095Y32353572D01*
X14451190Y32294048D02*
X14629761Y32234524D01*
X14629761Y32389286D01*
X14713095Y32615477D02*
X14713095Y32472620D01*
X14713095Y32544048D02*
X14463095Y32544048D01*
X14498809Y32520239D01*
X14522619Y32496429D01*
X14534523Y32472620D01*
X25513095Y37796429D02*
X25263095Y37796429D01*
X25263095Y37855953D01*
X25275000Y37891667D01*
X25298809Y37915477D01*
X25322619Y37927381D01*
X25370238Y37939286D01*
X25405952Y37939286D01*
X25453571Y37927381D01*
X25477380Y37915477D01*
X25501190Y37891667D01*
X25513095Y37855953D01*
X25513095Y37796429D01*
X25513095Y38177381D02*
X25513095Y38034524D01*
X25513095Y38105953D02*
X25263095Y38105953D01*
X25298809Y38082143D01*
X25322619Y38058334D01*
X25334523Y38034524D01*
X25513095Y38415477D02*
X25513095Y38272620D01*
X25513095Y38344048D02*
X25263095Y38344048D01*
X25298809Y38320239D01*
X25322619Y38296429D01*
X25334523Y38272620D01*
X14713095Y37796429D02*
X14463095Y37796429D01*
X14463095Y37855953D01*
X14475000Y37891667D01*
X14498809Y37915477D01*
X14522619Y37927381D01*
X14570238Y37939286D01*
X14605952Y37939286D01*
X14653571Y37927381D01*
X14677380Y37915477D01*
X14701190Y37891667D01*
X14713095Y37855953D01*
X14713095Y37796429D01*
X14486904Y38034524D02*
X14475000Y38046429D01*
X14463095Y38070239D01*
X14463095Y38129762D01*
X14475000Y38153572D01*
X14486904Y38165477D01*
X14510714Y38177381D01*
X14534523Y38177381D01*
X14570238Y38165477D01*
X14713095Y38022620D01*
X14713095Y38177381D01*
X14713095Y38415477D02*
X14713095Y38272620D01*
X14713095Y38344048D02*
X14463095Y38344048D01*
X14498809Y38320239D01*
X14522619Y38296429D01*
X14534523Y38272620D01*
M02*
