M48
; DRILL file {KiCad (5.1.5-0-10_14)} date 2020 June 19, Friday 22:14:25
; FORMAT={-:-/ absolute / metric / decimal}
; #@! TF.CreationDate,2020-06-19T22:14:25+03:00
; #@! TF.GenerationSoftware,Kicad,Pcbnew,(5.1.5-0-10_14)
FMAT,2
METRIC
T1C0.400
T2C0.600
T3C2.200
T4C0.650
%
G90
G05
T1
X1.35Y72.0
X1.833Y73.167
X1.833Y70.833
X3.0Y73.65
X3.0Y70.35
X4.167Y73.167
X4.167Y70.833
X4.65Y72.0
X35.35Y3.0
X35.833Y4.167
X35.833Y1.833
X37.0Y4.65
X37.0Y1.35
X38.167Y4.167
X38.167Y1.833
X38.65Y3.0
X35.35Y72.0
X35.833Y73.167
X35.833Y70.833
X37.0Y73.65
X37.0Y70.35
X38.167Y73.167
X38.167Y70.833
X38.65Y72.0
X1.35Y3.0
X1.833Y4.167
X1.833Y1.833
X3.0Y4.65
X3.0Y1.35
X4.167Y4.167
X4.167Y1.833
X4.65Y3.0
T3
X3.0Y72.0
X37.0Y3.0
X37.0Y72.0
X3.0Y3.0
T4
X17.11Y68.7
X22.89Y68.7
T2
G00X15.68Y72.05
M15
G01X15.68Y72.65
M16
G05
G00X15.68Y67.62
M15
G01X15.68Y68.72
M16
G05
G00X24.32Y72.05
M15
G01X24.32Y72.65
M16
G05
G00X24.32Y67.62
M15
G01X24.32Y68.72
M16
G05
T0
M30
